<?xml version="1.0" standalone="no"?>
<!DOCTYPE svg PUBLIC "-//W3C//DTD SVG 20010904//EN"
 "http://www.w3.org/TR/2001/REC-SVG-20010904/DTD/svg10.dtd">
<svg version="1.0" xmlns="http://www.w3.org/2000/svg"
 width="1149.000000pt" height="465.000000pt" viewBox="0 0 1149.000000 465.000000"
 preserveAspectRatio="xMidYMid meet">

<g transform="translate(0.000000,465.000000) scale(0.100000,-0.100000)"
fill="#000000" stroke="none">
<path d="M5177 4543 c-167 -255 -294 -524 -366 -778 -54 -189 -83 -380 -101
-655 -12 -192 -18 -225 -41 -272 -22 -43 -50 -54 -107 -43 -79 15 -252 109
-521 283 l-114 73 7 -81 c36 -433 305 -818 765 -1091 290 -173 679 -292 1036
-318 l90 -6 3 -708 2 -707 165 0 165 0 0 705 0 705 68 0 c105 0 290 19 356 36
182 47 278 157 377 434 21 60 91 286 155 502 115 393 242 801 309 997 19 58
33 106 32 108 -2 2 -35 -34 -73 -79 -96 -116 -313 -330 -414 -411 -115 -93
-238 -165 -334 -199 -154 -53 -310 -35 -445 52 -217 140 -416 455 -793 1247
-78 167 -146 303 -150 303 -4 0 -36 -44 -71 -97z"/>
<path d="M112 2108 l3 -133 268 -3 267 -2 0 -865 0 -865 165 0 165 0 0 865 0
865 263 2 262 3 3 133 3 132 -701 0 -701 0 3 -132z"/>
<path d="M2340 1835 c-274 -56 -486 -249 -568 -516 -66 -214 -46 -491 48 -684
144 -296 439 -448 804 -414 194 18 340 90 472 232 63 68 130 173 149 235 l6
22 -179 0 -180 0 -12 -29 c-16 -40 -94 -118 -141 -142 -217 -110 -510 -25
-614 180 -21 43 -55 152 -55 180 0 8 170 11 604 11 420 0 607 3 611 11 4 6 7
70 7 142 0 167 -18 250 -84 387 -43 88 -63 117 -127 181 -113 112 -231 174
-389 205 -90 17 -265 17 -352 -1z m336 -285 c154 -53 256 -172 271 -316 l6
-54 -437 0 -436 0 0 23 c0 41 39 139 76 192 58 84 162 153 267 175 61 13 185
3 253 -20z"/>
<path d="M4133 1840 c-75 -14 -204 -63 -272 -104 -110 -67 -222 -197 -278
-324 -53 -119 -67 -203 -67 -382 1 -150 3 -173 28 -255 87 -287 290 -481 567
-541 43 -9 124 -16 194 -16 147 -1 263 25 377 84 137 71 273 219 327 356 l21
52 -178 0 -177 0 -20 -36 c-30 -56 -118 -130 -183 -154 -114 -43 -267 -36
-378 16 -109 51 -197 160 -228 280 -9 34 -16 69 -16 78 0 15 56 16 605 16
l605 0 6 26 c11 45 -3 306 -21 369 -40 146 -136 296 -243 380 -68 55 -194 119
-277 141 -71 19 -314 27 -392 14z m319 -291 c84 -28 160 -80 204 -140 38 -52
74 -149 74 -200 l0 -29 -440 0 -439 0 6 33 c34 181 168 320 345 357 62 13 178
4 250 -21z"/>
<path d="M7670 1834 c-116 -31 -223 -104 -292 -198 l-28 -39 0 117 0 116 -162
-2 -163 -3 -3 -792 -2 -793 164 0 165 0 3 493 c3 477 4 494 26 558 29 88 82
147 164 184 53 24 81 30 173 34 l110 6 3 168 2 167 -52 -1 c-29 0 -78 -7 -108
-15z"/>
<path d="M8645 1839 c-149 -25 -303 -105 -405 -210 -157 -161 -227 -364 -217
-629 9 -249 71 -403 222 -555 101 -102 182 -153 297 -190 141 -45 345 -51 493
-15 214 53 414 233 495 446 l10 24 -178 0 -177 0 -32 -49 c-66 -101 -168 -158
-300 -168 -228 -18 -424 114 -479 321 -8 28 -14 61 -14 74 l0 22 604 0 604 0
6 31 c11 56 6 225 -8 301 -60 312 -272 530 -578 592 -82 17 -258 20 -343 5z
m235 -270 c131 -20 265 -109 315 -209 21 -41 45 -130 45 -165 0 -13 -62 -15
-440 -15 -242 0 -440 4 -440 8 0 5 7 33 16 63 50 169 164 281 324 315 70 16
100 16 180 3z"/>
<path d="M10410 1836 c-319 -67 -528 -278 -594 -598 -23 -109 -21 -298 4 -418
81 -398 436 -643 866 -599 269 28 473 165 589 396 19 37 35 74 35 81 0 9 -41
12 -173 12 l-173 0 -34 -52 c-40 -61 -109 -116 -177 -142 -63 -23 -193 -32
-265 -17 -181 38 -325 189 -345 363 l-6 48 606 0 605 0 7 76 c13 133 -7 283
-53 402 -80 208 -269 377 -487 437 -82 23 -318 29 -405 11z m250 -267 c36 -5
90 -21 120 -35 137 -63 208 -157 236 -316 l6 -38 -441 0 c-358 0 -441 2 -441
13 0 7 7 38 16 68 54 185 216 311 409 318 17 0 59 -4 95 -10z"/>
</g>
</svg>
